<svg width="99" height="25" viewBox="0 0 99 25" fill="none" xmlns="http://www.w3.org/2000/svg">
<path d="M46.4189 0.101073L29.9466 0.0778809C26.573 0.0778809 24.9211 1.88674 24.9211 4.62322V6.59441C24.9211 9.65555 26.6661 11.418 29.9001 11.418H41.3935C42.1147 11.418 42.4637 11.7891 42.4637 12.5544V13.4124C42.4637 14.1313 42.138 14.5719 41.3702 14.5719H25.2003V19.0013H42.3474C45.7442 19.0013 47.3728 17.1925 47.3728 14.4792V12.3225C47.3728 9.26132 45.6279 7.49884 42.4404 7.49884H30.9238C30.2258 7.49884 29.9001 7.12779 29.9001 6.3625V5.66679C29.9001 4.92469 30.2258 4.53045 30.9703 4.53045H46.4654L46.4189 0.101073Z" fill="#ffffff"/>
<path d="M94.0443 10.9542C94.0443 13.7603 93.23 14.5719 90.4613 14.5719H81.3643V4.55365H90.4613C93.23 4.55365 94.0443 5.34212 94.0443 8.14817V10.9542ZM90.5777 0.0778809H76.4087V19.0245L90.5777 19.0013C96.557 19.0013 98.9999 16.6359 98.9999 11.3717V7.68436C98.9767 2.42012 96.5338 0.0778809 90.5777 0.0778809Z" fill="#ffffff"/>
<path d="M17.5458 0.0778809V7.47565H5.00546V0.0778809H0.0498047V19.0245H5.00546V11.6267H17.5458V19.0245H22.5015V0.0778809H17.5458Z" fill="#ffffff"/>
<path d="M57.5167 11.5572L61.216 4.55365H61.8441L65.5434 11.5572H57.5167ZM74.8963 19.0245L64.892 0.0778809H58.1448L49.9087 15.6851H67.7072L69.4754 19.0245H74.8963Z" fill="#ffffff"/>
<path d="M49.0248 17.3779L45.1394 24.7293H50.5604L54.4458 17.3779H49.0248Z" fill="#CF0027"/>
</svg>
